<svg width="30" height="30" viewBox="0 0 30 30" fill="none" xmlns="http://www.w3.org/2000/svg">
<g clip-path="url(#clip0_1395_463)">
<path d="M6.6 6.59998C2.9625 6.59998 0 9.56248 0 13.2C0 14.6086 0.447656 15.9117 1.2 16.9851V25.2023C1.2 26.1984 2.00391 27 3 27H4.25625C4.54219 28.6969 6.02344 30 7.8 30C9.57656 30 11.0578 28.6969 11.3438 27H16.8938C17.3391 27 17.7445 26.8195 18.0492 26.5359C18.3563 26.8078 18.7477 26.9953 19.1953 27H19.8563C20.1422 28.6969 21.6234 30 23.4 30C25.3805 30 27 28.3804 27 26.4C27 24.4195 25.3805 22.8 23.4 22.8C21.6234 22.8 20.1422 24.1031 19.8563 25.8H19.2047C19.0922 25.8 18.9234 25.7297 18.7969 25.6031C18.668 25.4742 18.6 25.3101 18.6 25.2V13.8C18.6 13.575 18.975 13.2 19.2 13.2H24C24.4758 13.2 25.1531 13.7203 25.6125 14.2711L25.7063 14.4H22.8C21.8438 14.4 21 15.1734 21 16.2V18.6C21 19.0992 21.232 19.5304 21.5508 19.8492C21.8695 20.1679 22.3008 20.4 22.8 20.4H28.8V25.2C28.8 25.425 28.425 25.8 28.2 25.8H27V27H28.2C29.1961 27 30 26.1961 30 25.2V19.432C30 18.0586 29.0414 16.8445 29.0414 16.8445L29.0344 16.8375L26.5477 13.5211L26.5383 13.5094C25.9852 12.8414 25.1484 12 24 12H19.2C18.9867 12 18.7875 12.0422 18.6 12.1101V10.7437C18.6 9.82263 17.8734 8.99998 16.9125 8.99998H11.6883C10.4742 7.53513 8.64375 6.59998 6.6 6.59998ZM6.6 7.79998C9.58828 7.79998 12 10.2117 12 13.2C12 16.1883 9.58828 18.6 6.6 18.6C3.61172 18.6 1.2 16.1883 1.2 13.2C1.2 10.2117 3.61172 7.79998 6.6 7.79998ZM6.59063 8.3906C6.26016 8.39763 5.99531 8.66951 6 8.99998V12.4687C5.77969 12.6492 5.65313 12.9164 5.65313 13.2C5.65313 13.2304 5.65547 13.2609 5.65781 13.2937L4.37578 14.5758C4.21875 14.7258 4.15547 14.9508 4.21172 15.1594C4.26562 15.3703 4.42969 15.5344 4.64062 15.5883C4.84922 15.6445 5.07422 15.5812 5.22422 15.4242L6.50625 14.1422C6.53672 14.1445 6.56953 14.1469 6.6 14.1469C7.12266 14.1469 7.54688 13.7226 7.54688 13.2C7.54688 12.9164 7.42031 12.6492 7.2 12.4687V8.99998C7.20234 8.83826 7.13906 8.68123 7.02422 8.56638C6.90938 8.45154 6.75234 8.38826 6.59063 8.3906ZM12.4711 10.2H16.9125C17.1703 10.2 17.4 10.4484 17.4 10.7437V13.7883C17.4 13.7929 17.4 13.7953 17.4 13.8V25.2C17.4 25.2047 17.4 25.207 17.4 25.2094V25.2937C17.4 25.5773 17.1773 25.8 16.8938 25.8H11.3438C11.0578 24.1031 9.57656 22.8 7.8 22.8C6.02344 22.8 4.54219 24.1031 4.25625 25.8H3C2.775 25.8 2.4 25.425 2.4 25.2023V18.2836C3.54141 19.2304 5.00625 19.8 6.6 19.8C10.2375 19.8 13.2 16.8375 13.2 13.2C13.2 12.1195 12.9352 11.1 12.4711 10.2ZM22.8 15.6H26.6063L28.0641 17.5429C28.0664 17.5476 28.6148 18.4828 28.7297 19.2H22.8C22.6992 19.2 22.5305 19.132 22.3992 19.0008C22.268 18.8695 22.2 18.7008 22.2 18.6V16.2C22.2 15.8976 22.5563 15.6 22.8 15.6ZM7.8 24C9.13359 24 10.2 25.0664 10.2 26.4C10.2 27.7336 9.13359 28.8 7.8 28.8C6.46641 28.8 5.4 27.7336 5.4 26.4C5.4 25.0664 6.46641 24 7.8 24ZM23.4 24C24.7336 24 25.8 25.0664 25.8 26.4C25.8 27.7336 24.7336 28.8 23.4 28.8C22.0664 28.8 21 27.7336 21 26.4C21 25.0664 22.0664 24 23.4 24Z" fill="#AFAFBD"/>
</g>
<defs>
<clipPath id="clip0_1395_463">
<rect width="30" height="30" fill="white"/>
</clipPath>
</defs>
</svg>
