<svg width="30" height="30" viewBox="0 0 30 30" fill="none" xmlns="http://www.w3.org/2000/svg">
<path d="M27.5 15.2549V17.1563C27.5 22.0323 27.5 24.4704 26.0355 25.9851C24.5711 27.5 22.214 27.5 17.5 27.5H12.5C7.78595 27.5 5.42894 27.5 3.96446 25.9851C2.5 24.4704 2.5 22.0323 2.5 17.1563V15.2549C2.5 12.3944 2.5 10.9641 3.149 9.77843C3.798 8.59276 4.98369 7.85689 7.35504 6.38516L9.85504 4.83359C12.3617 3.27786 13.6151 2.5 15 2.5C16.3849 2.5 17.6382 3.27786 20.145 4.83359L22.645 6.38515C25.0164 7.85689 26.202 8.59276 26.851 9.77843" stroke="#AFAFBD" stroke-width="1.5" stroke-linecap="round"/>
<path d="M18.75 22.5H11.25" stroke="#AFAFBD" stroke-width="1.5" stroke-linecap="round"/>
</svg>
