<svg width="40" height="40" viewBox="0 0 40 40" fill="none" xmlns="http://www.w3.org/2000/svg">
<path d="M7.375 23.625V28.0625H11.8125V27.1563H8.25V23.625H7.375Z" fill="#AFAFBD"/>
<path d="M30.2188 28.0625H34.6563V23.625H33.75V27.1563H30.2188V28.0625Z" fill="#AFAFBD"/>
<path d="M11.8125 13.8438H7.375V18.2813H8.25V14.75H11.8125V13.8438Z" fill="#AFAFBD"/>
<path d="M34.875 18.2813V13.8438H30.4375V14.75H33.9687V18.2813H34.875Z" fill="#AFAFBD"/>
<path d="M15.125 20.9375C15.125 24.125 17.6875 26.7188 20.9062 26.7188C24.125 26.7188 26.6562 24.1562 26.6562 20.9375C26.6562 17.7188 24.0938 15.1562 20.875 15.1562C17.6563 15.1562 15.125 17.75 15.125 20.9375ZM21.3438 17.4063C22.0625 17.4063 22.5937 17.5937 23 17.75L22.6562 19C22.375 18.875 21.9062 18.6875 21.25 18.6875C20.5937 18.6875 20.2187 19 20.2187 19.3438C20.2187 19.7813 20.625 19.9688 21.5 20.3125C22.6875 20.75 23.2812 21.375 23.2812 22.3438C23.2812 23.3125 22.6562 24.125 21.375 24.375V25.4063H20.5V24.4375C19.75 24.4375 18.9375 24.2188 18.5937 24.0312L18.9062 22.75C19.3125 22.9688 19.9687 23.1875 20.625 23.1875C21.3437 23.1875 21.7187 22.875 21.7187 22.4375C21.7187 22 21.4063 21.7812 20.5625 21.4687C19.4063 21.0625 18.6562 20.4375 18.6562 19.4375C18.6562 18.4688 19.3125 17.7187 20.4687 17.4375V16.375H21.3438V17.4063Z" fill="#AFAFBD"/>
<path d="M35.6875 11.1563V9.3125H2.875V28.8438H4.6875V30.6875H37.5V11.1563H35.6875ZM3.75 27.9688V10.2188H34.7813V11.1563H4.6875V27.9688H3.75ZM36.625 29.8125H5.59375V12.0313H36.625V29.8125Z" fill="#AFAFBD"/>
</svg>
