<svg width="30" height="30" viewBox="0 0 30 30" fill="none" xmlns="http://www.w3.org/2000/svg">
<path opacity="0.4" d="M15.2006 13.5875C15.0756 13.575 14.9256 13.575 14.7881 13.5875C11.8132 13.4875 9.45068 11.05 9.45068 8.05C9.45068 4.9875 11.9257 2.5 15.0006 2.5C18.0631 2.5 20.5506 4.9875 20.5506 8.05C20.5381 11.05 18.1756 13.4875 15.2006 13.5875Z" stroke="#292D32" stroke-width="1.5" stroke-linecap="round" stroke-linejoin="round"/>
<path d="M8.95088 18.2C5.92588 20.225 5.92588 23.525 8.95088 25.5375C12.3884 27.8375 18.0259 27.8375 21.4634 25.5375C24.4884 23.5125 24.4884 20.2125 21.4634 18.2C18.0384 15.9125 12.4009 15.9125 8.95088 18.2Z" stroke="#AFAFBD" stroke-width="1.5" stroke-linecap="round" stroke-linejoin="round"/>
</svg>
