<svg width="24" height="24" viewBox="0 0 24 24" fill="none" xmlns="http://www.w3.org/2000/svg">
<g clip-path="url(#clip0_1395_441)">
<path d="M9.19999 0C8.67679 0 8.67999 0.8 9.19999 0.8H14.6736C15.2496 0.8 15.2576 1.1264 15.1168 1.416L12.0448 7.416C11.9072 7.6832 12.1008 8 12.4 8H18.0576C18.1776 8 18.316 8.0744 18.3696 8.1984C18.4256 8.3224 18.4456 8.5528 18.1392 8.9584L8.26399 22.056L9.59519 14.0656C9.63519 13.8216 9.44719 13.5992 9.19999 13.6H6.03199C5.58639 13.6 5.55199 13.4688 5.62799 12.8528L7.19599 1.2528C7.26799 0.7248 6.47359 0.6176 6.40399 1.1472L4.83439 12.7472C4.77439 13.192 4.78639 13.5856 4.99679 13.9152C5.20799 14.2456 5.61119 14.4 6.03119 14.4H8.72559L7.20479 23.5344C7.13599 23.9472 7.66719 24.1744 7.91839 23.8408L18.7784 9.4408C19.1976 8.8856 19.2928 8.316 19.1032 7.8808C18.9112 7.4456 18.4872 7.2008 18.0568 7.2008H13.0536L15.8272 1.7848C15.9776 1.4904 16.08 1.1 15.9232 0.6968C15.7656 0.2904 15.296 0 14.672 0H9.19999Z" fill="#1976D2"/>
</g>
<defs>
<clipPath id="clip0_1395_441">
<rect width="24" height="24" fill="white"/>
</clipPath>
</defs>
</svg>
